PathFileType	4	(X/Y/Z)	\\147.46.242.158\로컬 디스크 (e)\MOCAP Data\Iguana Capture\iguana\Project 2\Capture day 7\Session 2\Take08.trc
DataRate	CameraRate	NumFrames	NumMarkers	Units	OrigDataRate	OrigDataStartFrame	OrigNumFrames
120.0	120.0	11	23	mm	120.0	455	29130
Frame#	Time	ana:head1			ana:head2			ana:bone1			ana:bone2			ana:bone3			ana:tail1			ana:tail2			ana:tail3			ana:tail4			ana:Rforefoot1			ana:Rforefoot2			ana:Rforefoot3			ana:Lforefoot1			ana:Lforefoot2			ana:Lforefoot3			ana:RhindLeg1			ana:RhindLeg2			ana:RhindLeg3			ana:RhindLeg4			ana:LhindLeg1			ana:LhindLeg2			ana:LhindLeg3			ana:LhindLeg4			
		X1	Y1	Z1	X2	Y2	Z2	X3	Y3	Z3	X4	Y4	Z4	X5	Y5	Z5	X6	Y6	Z6	X7	Y7	Z7	X8	Y8	Z8	X9	Y9	Z9	X10	Y10	Z10	X11	Y11	Z11	X12	Y12	Z12	X13	Y13	Z13	X14	Y14	Z14	X15	Y15	Z15	X16	Y16	Z16	X17	Y17	Z17	X18	Y18	Z18	X19	Y19	Z19	X20	Y20	Z20	X21	Y21	Z21	X22	Y22	Z22	X23	Y23	Z23	

1956	16.292	-43.80174	-186.61769	56.65650	-44.18917	-176.10115	57.84139	-40.93304	-154.34828	46.03073	-37.16745	-126.69180	40.76090	-22.81760	-97.27715	33.06364	-5.35424	-70.49805	25.29278	11.25715	-39.49694	15.35837	32.15171	-1.18748	7.61952	54.37955	32.34309	6.42388	-52.57105	-163.84637	30.09256	-64.63323	-165.96439	20.93433	-64.17945	-180.98471	9.09303	-25.88219	-159.88278	30.50212	-15.19967	-153.92615	21.27839	-24.10818	-153.50085	2.57229	-30.68647	-90.96101	25.70592	-45.02623	-80.51875	17.08508	-33.64380	-70.76507	4.91218	-41.59243	-78.92037	6.04413	-14.98650	-102.67169	28.51819	-11.68391	-121.29659	32.03506	4.61150	-120.58981	16.44765	4.26863	-130.85332	18.33680	
1957	16.300	-43.82410	-186.89531	56.65715	-44.27915	-176.31961	57.79851	-40.99498	-154.64836	45.92176	-37.35526	-126.97274	40.70847	-23.02225	-97.66507	32.98905	-5.46974	-70.81061	25.32074	11.10527	-39.80356	15.43210	31.99653	-1.46176	7.59364	54.15557	32.07719	6.41712	-52.60128	-164.18318	29.95375	-64.21087	-166.37971	20.36615	-64.25324	-181.28827	8.60965	-25.91367	-160.12022	30.47668	-15.30224	-154.22870	21.48821	-24.21131	-153.54489	2.52248	-30.84503	-91.22145	25.62787	-45.01942	-80.60641	17.11421	-33.66666	-70.76082	4.98958	-41.63192	-78.96651	6.03999	-15.15353	-103.06787	28.50734	-12.10376	-121.91518	31.96739	4.04471	-121.51294	16.10021	3.80784	-131.81450	17.77835	
1958	16.308	-43.94637	-187.15404	56.70868	-44.38451	-176.53915	57.77723	-41.08296	-154.92023	45.87568	-37.51005	-127.22304	40.66373	-23.22098	-98.03255	32.90852	-5.57212	-71.11691	25.32460	10.95220	-40.10385	15.49984	31.83627	-1.73373	7.57169	53.95331	31.80189	6.42881	-52.63115	-164.49942	29.86777	-63.90877	-166.71820	19.96176	-64.35538	-181.55209	8.29272	-25.95036	-160.35046	30.44041	-15.39467	-154.51884	21.71245	-24.37745	-153.61957	2.42929	-30.98901	-91.48833	25.55283	-45.01549	-80.64896	17.11188	-33.69431	-70.75710	5.04998	-41.62509	-78.95580	5.99646	-15.30124	-103.42644	28.47357	-12.51802	-122.52882	31.86448	3.52022	-122.44672	15.75845	3.33646	-132.73714	17.19294	
1959	16.317	-44.15480	-187.38344	56.81854	-44.50240	-176.76329	57.80014	-41.19691	-155.13843	45.88577	-37.62102	-127.43240	40.60603	-23.42372	-98.36884	32.82542	-5.65961	-71.42160	25.29535	10.81124	-40.39439	15.54231	31.67981	-2.00313	7.55958	53.78209	31.52582	6.45302	-52.65097	-164.77757	29.80145	-63.73723	-166.99899	19.69322	-64.46496	-181.77858	8.09773	-26.00384	-160.57007	30.40181	-15.47084	-154.75995	21.90488	-24.45745	-153.86998	2.42940	-31.11271	-91.75039	25.49860	-44.99396	-80.71526	17.09321	-33.71091	-70.76575	5.07204	-41.63749	-78.95313	5.96420	-15.41945	-103.72266	28.36884	-12.90579	-123.03665	31.72907	3.04141	-123.30377	15.41968	2.87614	-133.65378	16.61781	
1960	16.325	-44.39225	-187.58736	56.95198	-44.55404	-176.98683	57.77174	-41.31997	-155.32637	45.93689	-37.69777	-127.60737	40.53674	-23.59301	-98.64446	32.74706	-5.72564	-71.72343	25.23320	10.68452	-40.67566	15.54921	31.52334	-2.25875	7.56239	53.63795	31.26074	6.47666	-52.66313	-165.02968	29.71928	-63.68958	-167.22881	19.52674	-64.54350	-181.94855	7.97634	-26.05683	-160.77892	30.37399	-15.54689	-154.95975	22.03991	-24.57818	-154.13313	2.39317	-31.20506	-91.99660	25.45923	-44.92954	-80.75179	17.06330	-33.71573	-70.78014	5.06521	-41.61762	-78.93792	5.93109	-15.52057	-103.95120	28.24786	-13.27172	-123.44112	31.56329	2.63779	-124.12233	15.10027	2.48158	-134.49467	16.04237	
1961	16.333	-44.62136	-187.77675	57.09217	-44.55280	-177.19260	57.71072	-41.45907	-155.48723	46.01122	-37.74786	-127.76811	40.45082	-23.72895	-98.90954	32.74284	-5.77993	-72.02045	25.15459	10.58875	-40.95521	15.51225	31.38396	-2.49973	7.57500	53.51442	31.00880	6.50117	-52.68558	-165.25375	29.62150	-63.76397	-167.40425	19.43433	-64.60724	-182.05408	7.87981	-26.11652	-160.97646	30.35988	-15.62355	-155.08344	22.10125	-24.69057	-154.39183	2.35183	-31.26744	-92.22964	25.43077	-44.82389	-80.77614	17.02160	-33.74850	-70.73436	5.10159	-41.58214	-78.91364	5.91025	-15.56884	-104.12691	28.08036	-13.57054	-123.73602	31.39273	2.26606	-124.88229	14.75406	2.07304	-135.33339	15.42030	
1962	16.342	-44.74010	-187.93300	57.15075	-44.51773	-177.38097	57.59575	-41.56875	-155.68205	46.05558	-37.78367	-127.93271	40.35571	-23.77937	-99.12220	32.75308	-5.81423	-72.30940	25.06487	10.51390	-41.23431	15.44279	31.26770	-2.72336	7.59157	53.40464	30.79652	6.51779	-52.73965	-165.45679	29.52155	-63.85396	-167.53461	19.32561	-64.64913	-182.09023	7.77981	-26.18943	-161.13400	30.35966	-15.71247	-155.20619	22.13413	-24.77858	-154.61174	2.31278	-31.30138	-92.44209	25.40818	-44.68978	-80.79379	16.99795	-33.74603	-70.71191	5.10234	-41.52489	-78.89509	5.89521	-15.58571	-104.29703	27.88773	-13.78365	-123.96214	31.25918	1.95551	-125.57367	14.39553	1.66247	-136.20406	14.73402	
1963	16.350	-44.76080	-188.10608	57.16723	-44.48346	-177.55461	57.47182	-41.65198	-155.92308	46.05416	-37.82105	-128.10255	40.26818	-23.80070	-99.28175	32.78083	-5.82262	-72.58143	24.98185	10.46405	-41.51005	15.35349	31.17156	-2.93308	7.61225	53.29219	30.60805	6.53168	-52.83043	-165.63205	29.43332	-63.94801	-167.62012	19.20244	-64.67915	-182.08536	7.67740	-26.26931	-161.25826	30.35157	-15.81233	-155.32379	22.12488	-24.84585	-154.77039	2.26308	-31.31918	-92.64118	25.38951	-44.53757	-80.81174	16.99524	-33.76462	-70.67680	5.14873	-41.45803	-78.87914	5.88942	-15.54766	-104.39558	27.62691	-13.92636	-124.16238	31.11201	1.60876	-126.28848	14.03244	1.28596	-137.02966	14.02231	
1964	16.358	-44.79987	-188.26772	57.17979	-44.47537	-177.71556	57.36422	-41.73106	-156.13974	46.06143	-37.87627	-128.30409	40.22461	-23.80496	-99.50513	32.79930	-5.80561	-72.83330	24.89113	10.43388	-41.77840	15.27238	31.09476	-3.13704	7.62394	53.18259	30.44056	6.55856	-52.95761	-165.77626	29.37642	-64.05051	-167.67293	19.07786	-64.69593	-182.04756	7.56813	-26.35717	-161.36655	30.33129	-15.92575	-155.44041	22.09805	-24.87712	-154.85446	2.21793	-31.31837	-92.83697	25.36426	-44.39597	-80.83316	16.98220	-33.83423	-70.59154	5.26463	-41.12186	-78.76686	5.63912	-15.49372	-104.48007	27.32894	-13.98016	-124.37108	30.93353	1.18236	-127.00956	13.65700	0.88039	-137.81720	13.24495	
1965	16.367	-44.87701	-188.42836	57.20754	-44.52941	-177.85585	57.30463	-41.81750	-156.37836	46.05030	-37.92651	-128.49738	40.19982	-23.84415	-99.77357	32.74943	-5.76526	-73.06856	24.79489	10.43364	-42.03392	15.18547	31.03535	-3.33728	7.62323	53.06998	30.28744	6.58369	-53.09354	-165.89491	29.35420	-64.15927	-167.70691	18.95542	-64.71067	-182.00716	7.46312	-26.44325	-161.44673	30.28109	-16.03372	-155.54225	22.06876	-24.91245	-154.91656	2.16785	-31.30207	-93.03573	25.33006	-44.27277	-80.90883	16.96334	-33.90393	-70.48883	5.38237	-40.84765	-78.67019	5.43013	-15.46961	-104.64115	27.10655	-13.99476	-124.62321	30.70222	0.81262	-127.66751	13.23296	0.51985	-138.55528	12.48071	
1966	16.375	-44.99055	-188.59377	57.25346	-44.60968	-177.98436	57.29167	-41.89690	-156.60605	46.02847	-37.97710	-128.67677	40.19526	-23.90707	-100.04840	32.65295	-5.71577	-73.31026	24.66398	10.45026	-42.27597	15.10447	30.98609	-3.52965	7.61176	52.94741	30.15162	6.60276	-53.21903	-165.99602	29.35276	-64.27334	-167.72957	18.85402	-64.72097	-181.96965	7.37169	-26.53400	-161.52002	30.20990	-16.12089	-155.58832	22.07766	-24.95379	-154.96742	2.11856	-31.27541	-93.23472	25.28291	-44.18268	-81.00151	16.94931	-33.98587	-70.36074	5.51999	-40.61127	-78.58762	5.23664	-15.49014	-104.90192	26.98734	-14.00573	-124.92740	30.41306	0.49216	-128.23149	12.79020	0.12961	-139.25896	11.75356	
